<svg width="20" height="20" viewBox="0 0 20 20" fill="none" xmlns="http://www.w3.org/2000/svg">
<path d="M11.4238 2.51953L11.4277 2.5127L13.8516 0.726562L14.1836 3.55273L17.0547 2.79785L16.2764 5.45508L19.1396 5.74902L17.3682 7.99512C17.3774 8.0325 17.3869 8.06981 17.3955 8.10742H17.457L20 9.55176L17.457 10.9951H17.4424C17.442 10.9971 17.4408 10.999 17.4404 11.001L17.4668 11.0117L19.2197 13.2969L16.3691 13.6592L17.0879 16.3848L14.3604 15.7002L14.0049 18.4082L11.6162 16.7383L11.6104 16.7266C11.5556 16.7376 11.5005 16.7469 11.4453 16.7568V16.7705L9.94238 19.2139L8.43945 16.7705V16.7119C8.43126 16.7102 8.42322 16.7078 8.41504 16.7061L8.40723 16.7266L6.0293 18.4102L5.64844 15.6582L2.86426 16.3369L3.57617 13.7119L0.78125 13.3721L2.51953 11.0771L2.67578 11.0117C2.67471 11.0063 2.67489 11.0006 2.67383 10.9951H2.65918L0 9.55176L2.65918 8.10742H2.66992L0.8125 5.78223L3.7666 5.45996L2.99414 2.75098L5.76465 3.50098L6.06934 0.771484L8.46289 2.5127L9.94238 0L11.4238 2.51953Z" fill="#FAD008"/>
</svg>
